<svg width="153" height="52" viewBox="0 0 153 52" fill="none" xmlns="http://www.w3.org/2000/svg">
<path d="M11.2706 16.8439H7.14215V27.908H0V0.330273H7.14215V11.0641H11.2706V0.330273H18.4127V27.908H11.2706V16.8439Z" fill="#247BA0"/>
<path d="M27.8609 16.7201V22.087H35.1269V27.908H20.8839V0.330273H35.1269V6.15133H27.8609V11.188H34.0536V16.7201H27.8609Z" fill="#247BA0"/>
<path d="M47.4064 17.1742L46.0027 8.13296H45.8789L44.5165 17.1742H47.4064ZM50.5027 0.330273L55.9109 27.908H49.0577L48.2321 22.4585H43.6908L42.8651 27.908H36.2184L41.6266 0.330273H50.5027Z" fill="#247BA0"/>
<path d="M65.3401 27.908H57.2897V0.330273H65.3401C72.1107 0.330273 75.7024 5.11923 75.7024 14.1604C75.7024 23.2017 72.1107 27.908 65.3401 27.908ZM65.2988 6.19261H64.308V22.087H65.2575C67.4456 22.087 68.2713 19.9402 68.2713 14.1604C68.2713 8.33938 67.4456 6.19261 65.2988 6.19261Z" fill="#247BA0"/>
<path d="M93.6284 20.2705C93.6284 22.6237 92.8027 24.564 91.1926 26.0503C89.5826 27.4952 87.4771 28.2383 84.9588 28.2383C80.0047 28.2383 76.6607 25.1007 76.4542 20.2705L82.4404 18.5778C82.3991 21.0136 83.39 22.6237 84.8762 22.6237C85.9909 22.6237 86.6101 22.0044 86.6101 20.8897C86.6101 20.2705 86.3624 19.6925 85.9083 19.1558C85.4542 18.5778 84.4633 17.7934 82.9358 16.7613C80.5001 15.1513 78.8487 13.7063 78.023 12.4265C77.2386 11.1467 76.8258 9.70176 76.8258 8.09168C76.8258 5.6972 77.6102 3.75685 79.179 2.27062C80.7891 0.743114 82.8533 0 85.3716 0C90.2844 0 93.2156 2.8486 93.422 7.76141L87.4358 9.0825C87.3945 6.93573 86.6101 5.53207 85.4129 5.53207C84.4221 5.53207 83.7615 6.27518 83.7615 7.30728C83.7615 7.84398 83.9679 8.33938 84.3808 8.83479C84.7936 9.3302 85.7431 10.0733 87.1881 11.0228C89.8303 12.7155 90.8211 13.6237 91.688 14.7797C93.0091 16.3898 93.6284 18.165 93.6284 20.2705Z" fill="#247BA0"/>
<path d="M106.498 16.8439H102.37V27.908H95.2275V0.330273H102.37V11.0641H106.498V0.330273H113.64V27.908H106.498V16.8439Z" fill="#247BA0"/>
<path d="M115.533 14.1192C115.533 4.99538 118.919 0 125.153 0C131.387 0 134.731 4.99538 134.731 14.1192C134.731 23.3255 131.387 28.2383 125.153 28.2383C118.877 28.2383 115.533 23.3255 115.533 14.1192ZM127.382 14.1192C127.382 8.0504 126.804 5.90362 125.153 5.90362C123.501 5.90362 122.882 8.13296 122.882 14.1192C122.882 20.1053 123.501 22.3347 125.153 22.3347C126.804 22.3347 127.382 20.1879 127.382 14.1192Z" fill="#247BA0"/>
<path d="M152.216 6.15133H147.221V27.908H140.12V6.15133H135.124V0.330273H152.216V6.15133Z" fill="#247BA0"/>
<path d="M4 51.563V40.156H8.06599C8.95345 40.156 9.68867 40.3175 10.2716 40.6405C10.8546 40.9636 11.2909 41.4055 11.5806 41.9662C11.8702 42.5231 12.015 43.1507 12.015 43.8488C12.015 44.5506 11.8683 45.1818 11.575 45.7425C11.2854 46.2995 10.8472 46.7414 10.2605 47.0681C9.67753 47.3912 8.94417 47.5527 8.06042 47.5527H5.26436V46.0934H7.90446C8.46516 46.0934 8.92003 45.9969 9.26908 45.8038C9.61812 45.607 9.87433 45.3396 10.0377 45.0017C10.2011 44.6638 10.2828 44.2795 10.2828 43.8488C10.2828 43.418 10.2011 43.0356 10.0377 42.7014C9.87433 42.3672 9.61626 42.1054 9.26351 41.916C8.91446 41.7267 8.45402 41.632 7.88218 41.632H5.72108V51.563H4Z" fill="white" fill-opacity="0.6"/>
<path d="M32.4112 45.8595C32.4112 47.0774 32.1884 48.1245 31.7428 49.0009C31.2972 49.8735 30.6864 50.5456 29.9103 51.0172C29.138 51.485 28.2598 51.719 27.2758 51.719C26.2881 51.719 25.4062 51.485 24.6301 51.0172C23.8577 50.5456 23.2488 49.8716 22.8032 48.9953C22.3576 48.119 22.1348 47.0737 22.1348 45.8595C22.1348 44.6415 22.3576 43.5963 22.8032 42.7237C23.2488 41.8473 23.8577 41.1752 24.6301 40.7074C25.4062 40.2358 26.2881 40 27.2758 40C28.2598 40 29.138 40.2358 29.9103 40.7074C30.6864 41.1752 31.2972 41.8473 31.7428 42.7237C32.1884 43.5963 32.4112 44.6415 32.4112 45.8595ZM30.7068 45.8595C30.7068 44.9312 30.5564 44.1495 30.2556 43.5146C29.9586 42.8759 29.5501 42.3932 29.0303 42.0664C28.5141 41.7359 27.9293 41.5707 27.2758 41.5707C26.6185 41.5707 26.0318 41.7359 25.5157 42.0664C24.9996 42.3932 24.5911 42.8759 24.2903 43.5146C23.9933 44.1495 23.8448 44.9312 23.8448 45.8595C23.8448 46.7878 23.9933 47.5713 24.2903 48.21C24.5911 48.8449 24.9996 49.3276 25.5157 49.6581C26.0318 49.9849 26.6185 50.1483 27.2758 50.1483C27.9293 50.1483 28.5141 49.9849 29.0303 49.6581C29.5501 49.3276 29.9586 48.8449 30.2556 48.21C30.5564 47.5713 30.7068 46.7878 30.7068 45.8595Z" fill="white" fill-opacity="0.6"/>
<path d="M43.0267 51.563V40.156H47.0927C47.9764 40.156 48.7098 40.3082 49.2928 40.6127C49.8795 40.9172 50.3176 41.3386 50.6073 41.877C50.8969 42.4117 51.0417 43.03 51.0417 43.7318C51.0417 44.4299 50.895 45.0444 50.6017 45.5754C50.312 46.1027 49.8739 46.513 49.2872 46.8064C48.7042 47.0997 47.9709 47.2464 47.0871 47.2464H44.007V45.7648H46.9312C47.4881 45.7648 47.9412 45.685 48.2902 45.5253C48.643 45.3656 48.901 45.1335 49.0644 44.8291C49.2278 44.5246 49.3095 44.1588 49.3095 43.7318C49.3095 43.3011 49.2259 42.9279 49.0588 42.6123C48.8955 42.2966 48.6374 42.0553 48.2846 41.8882C47.9356 41.7174 47.477 41.632 46.9089 41.632H44.7478V51.563H43.0267ZM48.6578 46.4165L51.4761 51.563H49.5156L46.7529 46.4165H48.6578Z" fill="white" fill-opacity="0.6"/>
<path d="M61.0431 41.6375V40.156H69.8713V41.6375H66.3122V51.563H64.5967V41.6375H61.0431Z" fill="white" fill-opacity="0.6"/>
<path d="M80.2919 51.563V40.156H82.013V50.0814H87.1818V51.563H80.2919Z" fill="white" fill-opacity="0.6"/>
<path d="M99.1605 51.563H97.3336L101.439 40.156H103.427L107.532 51.563H105.705L102.48 42.2279H102.391L99.1605 51.563ZM99.4669 47.096H105.393V48.5441H99.4669V47.096Z" fill="white" fill-opacity="0.6"/>
<path d="M126.856 40.156V51.563H125.274L119.476 43.1971H119.37V51.563H117.649V40.156H119.242L125.046 48.533H125.152V40.156H126.856Z" fill="white" fill-opacity="0.6"/>
<path d="M141.529 51.563H137.836V40.156H141.646C142.764 40.156 143.724 40.3843 144.526 40.841C145.328 41.2941 145.942 41.9457 146.369 42.7961C146.8 43.6427 147.015 44.6582 147.015 45.8428C147.015 47.031 146.798 48.0521 146.364 48.9062C145.933 49.7602 145.309 50.4175 144.492 50.8779C143.675 51.3346 142.688 51.563 141.529 51.563ZM139.557 50.0591H141.434C142.303 50.0591 143.026 49.8958 143.601 49.569C144.177 49.2385 144.607 48.7614 144.893 48.1375C145.179 47.51 145.322 46.7451 145.322 45.8428C145.322 44.9479 145.179 44.1885 144.893 43.5647C144.611 42.9409 144.19 42.4674 143.629 42.1444C143.068 41.8213 142.372 41.6598 141.54 41.6598H139.557V50.0591Z" fill="white" fill-opacity="0.6"/>
</svg>
