<svg id="Layer_1" data-name="Layer 1" xmlns="http://www.w3.org/2000/svg" viewBox="0 0 93.83 36.88"><title>KEEN Footwear logo - Brandlogos.net</title><path d="M186,283.54l0,0-.14.08a5.12,5.12,0,0,0-2.5,3.81,19.12,19.12,0,0,0,2.17,12.87,5,5,0,0,0,3.65,2.71c15.06,1.51,30.12,1.18,41.4-.89l3.94-.75c11.75-2.16,26.15-7.18,39.49-13.8a5.1,5.1,0,0,0,2.66-3.89,21,21,0,0,0,0-6.58l0-.24a21.47,21.47,0,0,0-2.13-6.21,5,5,0,0,0-3.64-2.71c-14.83-1.47-30-1.07-41.81,1.08l-3.94.69C213.83,271.81,199.6,276.83,186,283.54Z" transform="translate(-183.08 -267.08)" style="fill:#231f20"/><path d="M208.26,284.15a2.14,2.14,0,0,0,.56-.5.89.89,0,0,0,0-.53l-.12-.72c-.15-.91-.42-1.18-1.18-.88a13.22,13.22,0,0,0-1.67,1c-1.69,1.1-7.94,5.06-11.42,7.26a1.21,1.21,0,0,0-.63.63,3.93,3.93,0,0,0,0,1.87,3.85,3.85,0,0,0,.72,1.71,2,2,0,0,0,.71.25c4,.82,11.18,2.32,13.13,2.76a12.48,12.48,0,0,0,1.89.3c.8,0,1-.33.81-1.24l-.14-.72a.81.81,0,0,0-.23-.49,1.92,1.92,0,0,0-.69-.27c-2.23-.52-11.27-2.32-13.64-2.82v0C198.44,290.36,206.33,285.42,208.26,284.15Z" transform="translate(-183.08 -267.08)" style="fill:#fd0"/><path d="M226.53,277.6c0-.13-.09-.58-.12-.72-.14-.75-.59-1.08-1.22-.89-1.58.36-2.81.66-4.62,1.24s-2.72,1-4.44,1.63c-.32.13-1,.41-1.36.6a14.36,14.36,0,0,0-2.07,1.22,5.08,5.08,0,0,0-1.4,1.4,4,4,0,0,0-.5,3.2l1.24,7.31a3.77,3.77,0,0,0,1.52,2.82,5,5,0,0,0,1.78.82,13.84,13.84,0,0,0,2.34.42c.41,0,1.13.08,1.46.08,1.83,0,2.84,0,4.71,0a45.28,45.28,0,0,0,4.75-.49c.65-.06,1-.52.84-1.29,0-.13-.11-.58-.12-.71-.12-.74-.48-1-1.13-.92-1.7.19-3.11.44-4.77.56s-2.88.22-4.84.33a6.18,6.18,0,0,1-2.56-.33,1.9,1.9,0,0,1-1.22-1.38c-.11-.61-1.27-7.48-1.37-8.07a1.92,1.92,0,0,1,.69-1.72,6.55,6.55,0,0,1,2.31-1.22c1.87-.6,3.08-.94,4.65-1.41s3-.72,4.66-1.16C226.41,278.7,226.67,278.34,226.53,277.6Z" transform="translate(-183.08 -267.08)" style="fill:#fd0"/><path d="M223.72,288.24c.65-.13.83-.55.77-1.33l-.15-.91c-.2-.77-.51-1.11-1.16-1-1.06.25-6.9,1.52-7.27,1.61-.68.17-.71.31-.74.53a4.41,4.41,0,0,0,.11,1,4.2,4.2,0,0,0,.24,1c.11.2.33.22.86.16Z" transform="translate(-183.08 -267.08)" style="fill:#fd0"/><path d="M192.79,288.23v0c.11-.63-.15-.91-.92-.77-.27,0-.56.09-.83.16a1.58,1.58,0,0,0-1.43,1.21,11,11,0,0,0-.11,4.14A10.52,10.52,0,0,0,191,296.8a1.55,1.55,0,0,0,1.75.61c.27,0,.56-.09.83-.16.77-.14.92-.5.62-1.05A10,10,0,0,1,192.79,288.23Z" transform="translate(-183.08 -267.08)" style="fill:#fd0"/><path d="M265.64,282.58c.26.13.77.33.86-.06a5.35,5.35,0,0,0,0-1.22,7,7,0,0,0-.15-1.55c-.06-.19-.32-.3-.5-.34-2-.74-3.92-1.4-6.05-2.1-2.67-.89-8.37-2.88-8.51-2.93a2.65,2.65,0,0,0-1.34-.14l-.32.06a.89.89,0,0,0-.42.22,1,1,0,0,0-.35.47.92.92,0,0,0-.06.53c0,.2.06.39.09.52.35,2.07.8,4.11,1.15,6.18s.59,4.09,1,6.15c.11.58.41.86,1,.74l.77-.14a1,1,0,0,0,.94-1.11c-.17-1.77-.41-3.51-.62-5.22s-.59-3.42-1-5.16c2.61.91,5.21,1.82,7.82,2.79C261.72,280.86,264,281.85,265.64,282.58Z" transform="translate(-183.08 -267.08)" style="fill:#fd0"/><path d="M273.94,283.13c-.21,1.14-.45,1.33-1.67,2-13.23,6.66-26.51,11.23-38.17,13.37l-4,.77c-11.17,2.05-24.37,2.43-39.32.94-1.36-.16-2.1-.2-2.76-1.24a22.22,22.22,0,0,1-1.9-5.39,16.39,16.39,0,0,1,0-5.69,2.32,2.32,0,0,1,1.33-1.85c13.65-6.69,26.95-11.37,38.08-13.4l4-.71c11.65-2.13,25.73-2.59,40.42-1a2.12,2.12,0,0,1,2,1,15.91,15.91,0,0,1,1.83,5.36l0,.19A15,15,0,0,1,273.94,283.13Zm-.74-11.74a3.52,3.52,0,0,0-2.52-1.93C256,268,241,268.4,229.34,270.54l-3.94.71c-11.14,2-25.23,7-38.66,13.67h0l-.09,0a3.57,3.57,0,0,0-1.75,2.7,19.73,19.73,0,0,0,0,6.1,19.36,19.36,0,0,0,2.05,5.77,3.46,3.46,0,0,0,2.52,1.91c14.88,1.49,29.8,1.16,40.95-.88l3.92-.75c11.63-2.13,25.89-7.12,39.11-13.67a3.58,3.58,0,0,0,1.83-2.74,19.14,19.14,0,0,0,0-6.08s0-.22,0-.22A19.58,19.58,0,0,0,273.2,271.39Z" transform="translate(-183.08 -267.08)" style="fill:#fd0"/><path d="M244.82,274.81a43.76,43.76,0,0,0-5.13-.33c-1.66,0-2.75,0-4.39,0a12.42,12.42,0,0,0-1.67.08,6,6,0,0,0-1.87.61,4.51,4.51,0,0,0-2.22,4.94c.3,1.74,1.51,8.86,1.8,10.6a4.31,4.31,0,0,0,3.7,3.84,6,6,0,0,0,2-.09,13,13,0,0,0,1.6-.52c1.57-.55,2.6-.93,4.13-1.54a46.86,46.86,0,0,0,4.71-2.13c.6-.31.62-.77.51-1.35a2.52,2.52,0,0,0-.06-.33c-.11-.64-.41-.86-1-.61-1.49.61-5.4,2-9.17,3.18a4.71,4.71,0,0,1-2.49.22,1.45,1.45,0,0,1-1.21-1.24c-.23-1.1-1.61-9.41-1.78-10.52a1.51,1.51,0,0,1,.72-1.6,4.71,4.71,0,0,1,2.4-.69c3.92-.25,8.07-.27,9.67-.22.66,0,.88-.28.77-.93a3.1,3.1,0,0,0-.06-.33C245.65,275.32,245.48,274.89,244.82,274.81Z" transform="translate(-183.08 -267.08)" style="fill:#fd0"/><path d="M267.81,273.51l-.83.16c-.63.11-.84.5-.56,1a10.36,10.36,0,0,1,1.12,3.25,10.68,10.68,0,0,1,.18,1.08,26.4,26.4,0,0,1,.2,4.11.47.47,0,0,0,.08.41.74.74,0,0,0,.66.09,3.46,3.46,0,0,0,1.51-.5,2.26,2.26,0,0,0,.66-1.57,12.61,12.61,0,0,0-.11-3.73,11.51,11.51,0,0,0-1.34-3.67A1.29,1.29,0,0,0,267.81,273.51Z" transform="translate(-183.08 -267.08)" style="fill:#fd0"/><path d="M242.75,284.56c.65-.13.83-.55.78-1.27,0-.14-.09-.49-.09-.49-.2-.69-.51-1-1.16-.91-1,.19-4.93.77-7.45,1.13,0,0-.48,0-.53.44a5.23,5.23,0,0,0,.14,1.32,3.78,3.78,0,0,0,.35,1.16.57.57,0,0,0,.57.22C237.83,285.61,241.74,284.75,242.75,284.56Z" transform="translate(-183.08 -267.08)" style="fill:#fd0"/></svg>