<?xml version="1.0" encoding="UTF-8" standalone="no"?>
<!-- Created with Inkscape (http://www.inkscape.org/) -->

<svg
   xmlns:dc="http://purl.org/dc/elements/1.1/"
   xmlns:cc="http://creativecommons.org/ns#"
   xmlns:rdf="http://www.w3.org/1999/02/22-rdf-syntax-ns#"
   xmlns:svg="http://www.w3.org/2000/svg"
   xmlns="http://www.w3.org/2000/svg"
   xmlns:sodipodi="http://sodipodi.sourceforge.net/DTD/sodipodi-0.dtd"
   xmlns:inkscape="http://www.inkscape.org/namespaces/inkscape"
   width="237"
   height="64.999992"
   viewBox="0 0 62.706249 17.197915"
   version="1.1"
   id="svg57167"
   inkscape:version="0.92.4 (5da689c313, 2019-01-14)"
   sodipodi:docname="zoominfo.svg">
  <defs
     id="defs57161" />
  <sodipodi:namedview
     id="base"
     pagecolor="#ffffff"
     bordercolor="#666666"
     borderopacity="1.0"
     inkscape:pageopacity="0.0"
     inkscape:pageshadow="2"
     inkscape:zoom="6.0550848"
     inkscape:cx="118"
     inkscape:cy="31.999994"
     inkscape:document-units="mm"
     inkscape:current-layer="layer1"
     showgrid="false"
     fit-margin-top="0"
     fit-margin-left="0"
     fit-margin-right="0"
     fit-margin-bottom="0"
     units="px"
     inkscape:window-width="1920"
     inkscape:window-height="1001"
     inkscape:window-x="-9"
     inkscape:window-y="-9"
     inkscape:window-maximized="1" />
  <metadata
     id="metadata57164">
    <rdf:RDF>
      <cc:Work
         rdf:about="">
        <dc:format>image/svg+xml</dc:format>
        <dc:type
           rdf:resource="http://purl.org/dc/dcmitype/StillImage" />
        <dc:title></dc:title>
      </cc:Work>
    </rdf:RDF>
  </metadata>
  <g
     inkscape:label="Layer 1"
     inkscape:groupmode="layer"
     id="layer1"
     transform="translate(58.435119,-140.10209)">
    <g
       transform="translate(-71.214227,-30.947326)"
       id="g57140">
      <path
         id="path57031"
         d="m 12.9114,173.29838 c 0,-1.16901 0.947663,-2.11667 2.116667,-2.11667 h 12.699999 c 1.169009,0 2.116667,0.94766 2.116667,2.11667 v 12.7 c 0,1.16901 -0.947658,2.11666 -2.116667,2.11666 H 15.028067 c -1.169004,0 -2.116667,-0.94765 -2.116667,-2.11666 z"
         inkscape:connector-curvature="0"
         style="fill:#ea1b15;stroke-width:0.26458332" />
      <path
         id="path57033"
         d="m 24.553093,175.41504 h 0.909373 c 0.08247,0 0.14896,0.0665 0.14896,0.14902 v 2.34516 c 0,0.0825 -0.06384,0.14901 -0.146288,0.15166 h -0.763085 c -0.08247,0 -0.14896,-0.0665 -0.14896,-0.14899 v -0.68609 l -5.882878,5.5976 h 1.500558 c 0.08247,0 0.14896,0.0665 0.14896,0.14899 v 0.76033 c 0,0.0825 -0.06649,0.14902 -0.14896,0.14902 h -2.877079 c -0.08247,0 -0.148961,-0.0665 -0.148961,-0.14902 v -0.90932 l 6.668347,-6.35002 h -0.698527 c -0.08247,0 -0.14896,-0.0665 -0.14896,-0.14902 v -0.75766 c 0,-0.0825 0.06649,-0.14898 0.14896,-0.14898 z m -5.291693,1.05834 2.496899,-0.003 c 0.08244,0 0.148961,-0.0665 0.148961,-0.14901 v -0.75766 c 0,-0.0825 -0.06652,-0.14902 -0.146315,-0.14902 h -4.461933 c -0.08247,0 -0.148961,0.0665 -0.148961,0.14902 v 2.34783 c 0,0.0825 0.06649,0.14899 0.148961,0.14899 h 0.757766 c 0.08244,0 0.146289,-0.0665 0.146289,-0.14899 v -1.43851 z m 5.291693,6.35002 h -3.026066 c -0.08244,0 -0.14896,0.0665 -0.14896,0.14899 v 0.76033 c 0,0.0825 0.06652,0.14902 0.14896,0.14902 h 3.935439 c 0.08247,0 0.14896,-0.0665 0.14896,-0.14902 v -2.36021 c 0,-0.0825 -0.06649,-0.14902 -0.14896,-0.14902 h -0.760413 c -0.08247,0 -0.14896,0.0665 -0.14896,0.14902 z"
         inkscape:connector-curvature="0"
         style="fill:#ffffff;stroke-width:0.26458332" />
      <path
         id="path57037"
         d="m 34.078066,183.37535 v -0.96639 l 3.58357,-3.36185 h -2.513568 v 0.66273 h -1.012164 v -1.58335 h 4.875292 v 0.96639 l -3.55465,3.34259 h 2.600325 v -0.67236 h 1.012163 v 1.61224 z"
         inkscape:connector-curvature="0"
         style="fill:#000514;stroke-width:0.26458332" />
      <path
         id="path57039"
         d="m 42.144154,183.49576 c -0.525198,0 -0.985573,-0.11808 -1.385623,-0.35184 -0.397669,-0.23379 -0.710936,-0.55912 -0.9398,-0.97121 -0.226483,-0.41211 -0.342371,-0.88926 -0.342371,-1.42668 0,-0.53742 0.11086,-1.0146 0.334963,-1.42669 0.224102,-0.41211 0.534987,-0.73745 0.935037,-0.97121 0.40005,-0.23375 0.858044,-0.35184 1.376098,-0.35184 0.518319,0 0.976048,0.11809 1.376098,0.35184 0.397669,0.23376 0.710935,0.5591 0.935037,0.97121 0.224102,0.41209 0.334963,0.88927 0.334963,1.42669 0,0.53742 -0.110861,1.01457 -0.334963,1.42668 -0.224102,0.41209 -0.532606,0.73742 -0.927629,0.97121 -0.395287,0.23376 -0.848519,0.35184 -1.359429,0.35184 z m 0,-0.91337 c 0.315912,0 0.595312,-0.0795 0.838729,-0.23616 0.245798,-0.15666 0.436298,-0.37354 0.571235,-0.64588 0.137319,-0.27231 0.204788,-0.59044 0.204788,-0.95432 0,-0.36391 -0.06747,-0.68202 -0.204788,-0.95436 -0.137318,-0.2723 -0.3302,-0.48921 -0.583141,-0.64584 -0.253207,-0.15666 -0.535252,-0.23617 -0.8509,-0.23617 -0.315648,0 -0.604838,0.0795 -0.850636,0.23617 -0.245798,0.15663 -0.436298,0.37354 -0.578379,0.64584 -0.1397,0.27234 -0.20955,0.59045 -0.20955,0.95436 0,0.36388 0.06985,0.68201 0.20955,0.95432 0.1397,0.27234 0.334963,0.48922 0.587904,0.64588 0.253207,0.15663 0.540015,0.23616 0.860425,0.23616 z"
         inkscape:connector-curvature="0"
         style="fill:#000514;stroke-width:0.26458332" />
      <path
         id="path57041"
         d="m 47.990652,183.49576 c -0.525463,0 -0.985573,-0.11808 -1.385623,-0.35184 -0.397669,-0.23379 -0.710936,-0.55912 -0.940065,-0.97121 -0.226483,-0.41211 -0.342106,-0.88926 -0.342106,-1.42668 0,-0.53742 0.11086,-1.0146 0.334962,-1.42669 0.224103,-0.41211 0.534988,-0.73745 0.935038,-0.97121 0.40005,-0.23375 0.858044,-0.35184 1.376098,-0.35184 0.518054,0 0.976048,0.11809 1.376098,0.35184 0.397668,0.23376 0.710935,0.5591 0.935037,0.97121 0.224102,0.41209 0.334963,0.88927 0.334963,1.42669 0,0.53742 -0.110861,1.01457 -0.334963,1.42668 -0.224102,0.41209 -0.532606,0.73742 -0.927894,0.97121 -0.395022,0.23376 -0.848254,0.35184 -1.359164,0.35184 z m 0,-0.91337 c 0.315648,0 0.595312,-0.0795 0.838729,-0.23616 0.245798,-0.15666 0.436033,-0.37354 0.570971,-0.64588 0.137583,-0.27231 0.205052,-0.59044 0.205052,-0.95432 0,-0.36391 -0.06747,-0.68202 -0.205052,-0.95436 -0.137319,-0.2723 -0.329936,-0.48921 -0.583142,-0.64584 -0.252942,-0.15666 -0.534988,-0.23617 -0.850635,-0.23617 -0.315648,0 -0.604838,0.0795 -0.850636,0.23617 -0.245798,0.15663 -0.436298,0.37354 -0.578379,0.64584 -0.139965,0.27234 -0.209815,0.59045 -0.209815,0.95436 0,0.36388 0.06985,0.68201 0.209815,0.95432 0.1397,0.27234 0.334962,0.48922 0.587904,0.64588 0.252942,0.15663 0.53975,0.23616 0.860425,0.23616 z"
         inkscape:connector-curvature="0"
         style="fill:#000514;stroke-width:0.26458332" />
      <path
         id="path57043"
         d="m 58.962922,178.57689 c -0.36142,-0.38798 -0.855398,-0.58319 -1.484312,-0.58319 -0.426773,0 -0.792956,0.10604 -1.096698,0.3157 -0.298715,0.20484 -0.527579,0.50125 -0.686858,0.88445 -0.08917,-0.24342 -0.207169,-0.45067 -0.361421,-0.61696 -0.361421,-0.38798 -0.855398,-0.58319 -1.484577,-0.58319 -0.426509,0 -0.792692,0.10604 -1.096434,0.3157 -0.20955,0.14459 -0.380735,0.33499 -0.523081,0.56634 l -0.04815,-0.75433 H 51.24635 v 5.24886 h 0.997743 v -2.72804 c 0,-0.54464 0.118004,-0.9688 0.356659,-1.27005 0.238654,-0.30123 0.571235,-0.45067 0.997743,-0.45067 0.252942,0.007 0.474663,0.0602 0.667544,0.15666 0.192881,0.0988 0.342106,0.27231 0.450585,0.52054 0.10848,0.24824 0.164042,0.60971 0.164042,1.08689 v 2.68708 h 0.997744 v -2.72804 c 0,-0.54465 0.118004,-0.9688 0.356658,-1.27005 0.23839,-0.30123 0.570971,-0.45067 0.997744,-0.45067 0.252942,0.007 0.472281,0.0603 0.660135,0.15666 0.188119,0.0988 0.33999,0.27231 0.450586,0.52054 0.11086,0.24823 0.168804,0.60971 0.168804,1.08688 v 2.68709 h 0.985573 v -3.00279 c 0.0074,-0.80491 -0.16854,-1.40017 -0.529961,-1.79056 z"
         inkscape:connector-curvature="0"
         style="fill:#000514;stroke-width:0.26458332" />
      <path
         id="path57045"
         d="m 60.66922,177.27811 c -0.197644,0 -0.368564,-0.0747 -0.513291,-0.22413 -0.144463,-0.14941 -0.21934,-0.32293 -0.21934,-0.52054 0,-0.19762 0.0725,-0.37838 0.21934,-0.52057 0.144727,-0.14216 0.315647,-0.21206 0.513291,-0.21206 0.197644,0 0.378354,0.0699 0.5207,0.21206 0.142081,0.14219 0.211931,0.31329 0.211931,0.52057 0,0.20725 -0.06985,0.37113 -0.211931,0.52054 -0.142346,0.14941 -0.313266,0.22413 -0.5207,0.22413 z m -0.503502,6.09232 0.0217,-5.24886 h 0.985573 l -0.0095,5.24886 z"
         inkscape:connector-curvature="0"
         style="fill:#000514;stroke-width:0.26458332" />
      <path
         id="path57047"
         d="m 66.057989,178.57689 c -0.361421,-0.38798 -0.855663,-0.58319 -1.484577,-0.58319 -0.426508,0 -0.792956,0.10604 -1.096433,0.3157 -0.209815,0.14459 -0.380736,0.33499 -0.523082,0.56634 l -0.04815,-0.75433 H 61.97071 v 5.24886 h 0.997743 v -2.72804 c 0,-0.54464 0.118005,-0.9688 0.356659,-1.27005 0.238654,-0.30123 0.571235,-0.45067 0.997743,-0.45067 0.252942,0.007 0.474663,0.0602 0.667544,0.15666 0.192617,0.0988 0.342106,0.27231 0.450586,0.52054 0.108479,0.24824 0.163777,0.60971 0.163777,1.08689 v 2.68708 h 0.997743 v -3.00278 c 0,-0.80492 -0.18071,-1.40018 -0.53975,-1.7906 z"
         inkscape:connector-curvature="0"
         style="fill:#000514;stroke-width:0.26458332" />
      <path
         id="path57049"
         d="m 68.834262,177.64937 c 0,-0.3157 0.0553,-0.54708 0.168539,-0.6989 0.110861,-0.14941 0.284427,-0.22653 0.513292,-0.22653 0.07726,0 0.168804,0.0169 0.277283,0.0482 0.10848,0.0313 0.236273,0.082 0.383117,0.15182 l 0.366448,-0.76636 c -0.195263,-0.0916 -0.388144,-0.16386 -0.578379,-0.21447 -0.188119,-0.053 -0.364067,-0.0795 -0.525463,-0.0795 -0.53975,0 -0.942181,0.14219 -1.207293,0.42415 -0.265113,0.28438 -0.40005,0.70128 -0.40005,1.25318 v 0.57838 h -0.935038 v 0.82902 h 0.935038 v 4.41981 h 0.997743 v -4.41981 h 1.448329 v -0.82902 h -1.448329 v -0.47236 z"
         inkscape:connector-curvature="0"
         style="fill:#000514;stroke-width:0.26458332" />
      <path
         id="path57051"
         d="m 72.728664,183.49576 c -0.525463,0 -0.985573,-0.11808 -1.385623,-0.35184 -0.397669,-0.23379 -0.710935,-0.55912 -0.940065,-0.97121 -0.226483,-0.41211 -0.342106,-0.88926 -0.342106,-1.42668 0,-0.53742 0.110861,-1.0146 0.334963,-1.42669 0.224102,-0.41211 0.534987,-0.73745 0.935037,-0.97121 0.40005,-0.23375 0.858044,-0.35184 1.376098,-0.35184 0.518054,0 0.976048,0.11809 1.376098,0.35184 0.397669,0.23376 0.710935,0.5591 0.935037,0.97121 0.224102,0.41209 0.334963,0.88927 0.334963,1.42669 0,0.53742 -0.110861,1.01457 -0.334963,1.42668 -0.224102,0.41209 -0.532606,0.73742 -0.927893,0.97121 -0.395023,0.23376 -0.848255,0.35184 -1.359165,0.35184 z m 0,-0.91337 c 0.315648,0 0.595312,-0.0795 0.838729,-0.23616 0.245798,-0.15666 0.436033,-0.37354 0.571235,-0.64588 0.137319,-0.27231 0.204788,-0.59044 0.204788,-0.95432 0,-0.36391 -0.06747,-0.68202 -0.204788,-0.95436 -0.137583,-0.2723 -0.3302,-0.48921 -0.583406,-0.64584 -0.252942,-0.15666 -0.534987,-0.23617 -0.850635,-0.23617 -0.315648,0 -0.604838,0.0795 -0.850636,0.23617 -0.245798,0.15663 -0.436298,0.37354 -0.578379,0.64584 -0.139964,0.27234 -0.209814,0.59045 -0.209814,0.95436 0,0.36388 0.06985,0.68201 0.209814,0.95432 0.1397,0.27234 0.334963,0.48922 0.587904,0.64588 0.253207,0.15663 0.53975,0.23616 0.860425,0.23616 z"
         inkscape:connector-curvature="0"
         style="fill:#000514;stroke-width:0.26458332" />
    </g>
  </g>
</svg>
