<svg width="179" height="33" viewBox="0 0 179 33" fill="none" xmlns="http://www.w3.org/2000/svg">
<g clip-path="url(#clip0_2901_687)">
<path d="M157.6 0C156.897 0 156.481 0.567184 156.481 1.10859V9.28125H178.297L168.365 0H157.6Z" fill="#126BC5"/>
<path d="M179 11.7824C179 11.0863 178.427 10.6738 177.881 10.6738H169.639V32.3043L179 22.4558V11.7824Z" fill="#126BC5"/>
<path d="M167.117 33C167.819 33 168.235 32.4328 168.235 31.8914V23.7188H146.419L156.352 33H167.117Z" fill="#126BC5"/>
<path d="M145.717 21.2172C145.717 21.9133 146.289 22.3258 146.835 22.3258H155.078V0.824219L145.717 10.6727V21.2172Z" fill="#126BC5"/>
<path d="M45.9979 3.89258V13.8699H32.0347V3.89258H26.9902V29.1066H32.0347V18.3043H45.9979V29.1066H51.1724V3.89258H45.9979Z" fill="black"/>
<path d="M113.838 3.89258V28.9777H136.2L133.418 24.6723H119.012V18.3043H132.846V13.9988H119.012V8.32695H133.262L136.07 3.91836H113.838V3.89258Z" fill="black"/>
<path d="M7.98272 3.89258C2.67824 3.89258 0 7.08945 0 11.8074V21.2434C0 26.6574 3.48431 29.1582 7.98272 29.1582H23.9221L20.9839 24.4402H8.94481C6.42258 24.4402 5.30448 23.4605 5.30448 20.7019V12.2457C5.30448 9.46133 6.29257 8.35273 9.07482 8.35273H21.1139L23.9221 3.91836H7.98272V3.89258Z" fill="black"/>
<path d="M91.4502 3.89258C88.3819 3.89258 85.2876 5.69727 85.2876 10.4152V11.6527C85.2876 16.4996 88.3559 18.459 91.2941 18.459H101.929C103.047 18.459 103.879 18.5879 103.879 20.5473V22.6355C103.879 24.3113 103.047 24.7238 101.773 24.7238H87.7838L84.9756 29.1582H102.189C106.375 29.1582 109.184 27.0699 109.184 22.352V20.6762C109.184 16.1129 106.532 14.0246 102.475 14.0246H92.2562C91.1381 14.0246 90.3061 13.741 90.3061 12.091V10.1574C90.3061 8.76524 90.8781 8.22382 92.1262 8.22382H105.413L108.222 3.91836H91.4502V3.89258Z" fill="black"/>
<path d="M65.9942 3.89258L53.9551 28.9777H59.7016L62.0678 23.8473H75.069L77.4352 28.9777H83.1817L71.0126 3.89258H65.9942ZM68.3864 9.15195L72.9888 19.5418H63.758L68.3864 9.15195Z" fill="black"/>
</g>
<defs>
<clipPath id="clip0_2901_687">
<rect width="179" height="33" fill="white"/>
</clipPath>
</defs>
</svg>
