<svg width="108" height="42" viewBox="0 0 108 42" fill="none" xmlns="http://www.w3.org/2000/svg">
<path d="M8.95847 1.40039H1.2832V8.97063H8.95847V1.40039Z" fill="#0068B5"/>
<path d="M8.76751 40.8424V13.5787H1.50195V40.8424H8.76751ZM57.0589 41.1118V34.4305C55.9936 34.4305 55.0922 34.3767 54.4367 34.2689C53.6719 34.1611 53.0983 33.8917 52.7159 33.5146C52.3335 33.1374 52.0877 32.5986 51.9511 31.8982C51.8419 31.2246 51.7872 30.3356 51.7872 29.258V19.7211H57.0589V13.5787H51.7872V2.93728H44.4944V29.3119C44.4944 31.5479 44.6856 33.4338 45.068 34.9424C45.4504 36.4241 46.1059 37.6364 47.0073 38.5524C47.9086 39.4684 49.1105 40.115 50.5581 40.5191C52.0331 40.9232 53.8904 41.1118 56.1029 41.1118H57.0589ZM98.7948 40.8424V0.835938H91.502V40.8424H98.7948ZM37.4746 16.2458C35.4534 14.0906 32.6127 13.013 29.0073 13.013C27.2592 13.013 25.6749 13.3632 24.2273 14.0636C22.807 14.7641 21.5778 15.7339 20.6218 16.9732L20.2121 17.4851V17.0271V13.5787H13.0285V40.8424H20.2667V26.3215V27.3183C20.2667 27.1567 20.2667 26.995 20.2667 26.8334C20.3487 24.274 20.9769 22.3882 22.1787 21.1759C23.4625 19.8828 25.0194 19.2362 26.7948 19.2362C28.898 19.2362 30.5095 19.8828 31.5748 21.122C32.6127 22.3613 33.159 24.1124 33.159 26.3484V26.4023V40.8154H40.5065V25.3517C40.5338 21.4722 39.4959 18.401 37.4746 16.2458ZM87.7326 27.1567C87.7326 25.19 87.3775 23.3581 86.6947 21.6339C85.9845 19.9366 85.0012 18.428 83.7721 17.1348C82.5156 15.8417 81.0133 14.8449 79.2652 14.1175C77.5171 13.3901 75.5778 13.0399 73.4746 13.0399C71.4807 13.0399 69.596 13.4171 67.8479 14.1445C66.0998 14.8988 64.5702 15.8956 63.2865 17.1618C62.0027 18.428 60.9648 19.9366 60.2273 21.6608C59.4625 23.385 59.1074 25.2439 59.1074 27.2105C59.1074 29.1772 59.4625 31.0361 60.1727 32.7602C60.8828 34.4844 61.8935 35.9931 63.1499 37.2593C64.4064 38.5255 65.9633 39.5492 67.766 40.2766C69.5687 41.0309 71.5626 41.4081 73.6931 41.4081C79.8661 41.4081 83.6901 38.6332 85.9845 36.047L80.7402 32.1137C79.6476 33.4068 77.0255 35.1579 73.7478 35.1579C71.6992 35.1579 70.0057 34.7 68.722 33.757C67.4382 32.8411 66.5642 31.5479 66.0998 29.9585L66.0179 29.716H87.7326V27.1567ZM66.0725 24.6512C66.0725 22.6576 68.3942 19.1823 73.3927 19.1554C78.3912 19.1554 80.7402 22.6307 80.7402 24.6243L66.0725 24.6512Z" fill="black"/>
<path d="M107.098 37.2863C106.961 36.9631 106.77 36.6937 106.524 36.4512C106.279 36.2087 106.005 36.0201 105.678 35.8854C105.35 35.7507 104.995 35.6699 104.64 35.6699C104.257 35.6699 103.93 35.7507 103.602 35.8854C103.274 36.0201 103.001 36.2087 102.755 36.4512C102.509 36.6937 102.318 36.9631 102.181 37.2863C102.045 37.6096 101.963 37.9599 101.963 38.3101C101.963 38.6872 102.045 39.0105 102.181 39.3338C102.318 39.6571 102.509 39.9265 102.755 40.169C103.001 40.4114 103.274 40.6 103.602 40.7347C103.93 40.8694 104.285 40.9502 104.64 40.9502C105.022 40.9502 105.35 40.8694 105.678 40.7347C106.005 40.6 106.279 40.4114 106.524 40.169C106.77 39.9265 106.961 39.6571 107.098 39.3338C107.235 39.0105 107.316 38.6603 107.316 38.3101C107.316 37.9599 107.235 37.6096 107.098 37.2863ZM106.661 39.1722C106.552 39.4416 106.388 39.684 106.197 39.8726C106.005 40.0612 105.76 40.2228 105.486 40.3306C105.213 40.4384 104.94 40.4922 104.612 40.4922C104.312 40.4922 104.011 40.4384 103.738 40.3306C103.465 40.2228 103.219 40.0612 103.028 39.8726C102.837 39.684 102.673 39.4416 102.564 39.1722C102.455 38.9028 102.4 38.6334 102.4 38.3101C102.4 38.0137 102.455 37.7174 102.564 37.448C102.673 37.1786 102.837 36.9361 103.028 36.7475C103.219 36.559 103.465 36.3973 103.738 36.2896C104.011 36.1818 104.285 36.1279 104.612 36.1279C104.913 36.1279 105.213 36.1818 105.486 36.2896C105.76 36.3973 106.005 36.559 106.197 36.7475C106.388 36.9361 106.552 37.1786 106.661 37.448C106.77 37.7174 106.825 37.9868 106.825 38.3101C106.852 38.6334 106.77 38.9028 106.661 39.1722ZM105.131 38.5256C105.35 38.4987 105.514 38.4178 105.65 38.2831C105.787 38.1484 105.869 37.9599 105.869 37.6904C105.869 37.3941 105.787 37.1786 105.596 37.0169C105.432 36.8553 105.131 36.7745 104.776 36.7745H103.574V39.8187H104.148V38.5795H104.558L105.323 39.8187H105.923L105.131 38.5256ZM104.831 38.0946C104.749 38.0946 104.667 38.0946 104.558 38.0946H104.148V37.2325H104.558C104.64 37.2325 104.722 37.2325 104.831 37.2325C104.913 37.2325 104.995 37.2594 105.077 37.2863C105.159 37.3133 105.213 37.3672 105.241 37.421C105.268 37.4749 105.295 37.5557 105.295 37.6635C105.295 37.7713 105.268 37.8521 105.241 37.906C105.186 37.9599 105.131 38.0137 105.077 38.0407C104.995 38.0676 104.913 38.0946 104.831 38.0946Z" fill="black"/>
</svg>
