<svg width="120" height="40" viewBox="0 0 120 40" fill="none" xmlns="http://www.w3.org/2000/svg">
  <g clip-path="url(#clip0_microsoft)">
    <path d="M19.5 19.5H0V0H19.5V19.5Z" fill="#F25022"/>
    <path d="M40.5 19.5H21V0H40.5V19.5Z" fill="#7FBA00"/>
    <path d="M19.5 40.5H0V21H19.5V40.5Z" fill="#00A4EF"/>
    <path d="M40.5 40.5H21V21H40.5V40.5Z" fill="#FFB900"/>
    <path d="M56.2969 18.3281H51.6406V29.7656H48.9844V18.3281H44.3594V16.0156H56.2969V18.3281Z" fill="#737373"/>
    <path d="M57.7031 16.7969C58.0469 16.7969 58.3438 16.9219 58.5938 17.1719C58.8438 17.4219 58.9688 17.7188 58.9688 18.0625C58.9688 18.4062 58.8438 18.7031 58.5938 18.9531C58.3438 19.2031 58.0469 19.3281 57.7031 19.3281C57.3594 19.3281 57.0625 19.2031 56.8125 18.9531C56.5625 18.7031 56.4375 18.4062 56.4375 18.0625C56.4375 17.7188 56.5625 17.4219 56.8125 17.1719C57.0625 16.9219 57.3594 16.7969 57.7031 16.7969ZM59.0156 20.7969V29.7656H56.3906V20.7969H59.0156Z" fill="#737373"/>
    <path d="M67.0781 24.9375C67.0781 23.5 66.7344 22.3594 66.0469 21.5156C65.3594 20.6719 64.4062 20.25 63.1875 20.25C62.5 20.25 61.8906 20.3906 61.3594 20.6719C60.8281 20.9531 60.3906 21.3281 60.0469 21.7969H60V16.0156H57.375V29.7656H59.8125L59.9531 28.3594H60C60.3438 28.8594 60.7969 29.25 61.3594 29.5312C61.9219 29.8125 62.5469 29.9531 63.2344 29.9531C64.4531 29.9531 65.3906 29.5 66.0469 28.5938C66.7344 27.6875 67.0781 26.375 67.0781 24.6562V24.9375ZM64.4062 25.0312C64.4062 26.0312 64.2344 26.7812 63.8906 27.2812C63.5469 27.7812 63.0156 28.0312 62.2969 28.0312C61.7656 28.0312 61.3281 27.9062 60.9844 27.6562C60.6406 27.4062 60.3906 27.0312 60.2344 26.5312V23.2812C60.3906 22.7812 60.6406 22.3906 60.9844 22.1094C61.3281 21.8281 61.75 21.6875 62.25 21.6875C62.9688 21.6875 63.5 21.9375 63.8438 22.4375C64.1875 22.9375 64.3594 23.7188 64.3594 24.7812V25.0312H64.4062Z" fill="#737373"/>
    <path d="M75.9844 29.7656H73.3594V23.9375C73.3594 23.1875 73.2344 22.625 72.9844 22.25C72.7344 21.875 72.3281 21.6875 71.7656 21.6875C71.0156 21.6875 70.4688 21.9375 70.125 22.4375C69.7812 22.9375 69.6094 23.7188 69.6094 24.7812V29.7656H66.9844V20.7969H69.0469L69.3281 22.0156H69.4219C69.7031 21.5781 70.0781 21.2344 70.5469 20.9844C71.0156 20.7344 71.5625 20.6094 72.1875 20.6094C73.2812 20.6094 74.0938 20.9219 74.625 21.5469C75.1562 22.1719 75.4219 23.0781 75.4219 24.2656V29.7656H75.9844Z" fill="#737373"/>
    <path d="M84.9375 29.7656H82.3125V23.9375C82.3125 23.1875 82.1875 22.625 81.9375 22.25C81.6875 21.875 81.2812 21.6875 80.7188 21.6875C79.9688 21.6875 79.4219 21.9375 79.0781 22.4375C78.7344 22.9375 78.5625 23.7188 78.5

```xml file="public/images/wwwwgrid/logos/nike-logo.svg"
<svg width="129" height="45" viewBox="0 0 129 45" fill="none" xmlns="http://www.w3.org/2000/svg">
<g clip-path="url(#clip0_2901_634)">
<path fill-rule="evenodd" clip-rule="evenodd" d="M129 0L34.6762 39.9706C26.8232 43.3235 20.2056 45 14.9115 45C8.91145 45 4.58792 42.8824 1.85263 38.6471C-1.58855 33.1765 -0.0885469 24.4412 5.82322 15.1765C9.35263 9.79412 13.8526 4.85294 18.2644 0.0882353C17.2056 1.76471 8.11734 16.9412 18.0879 24.0882C20.0291 25.5 22.8526 26.2059 26.2938 26.2059C29.0291 26.2059 32.2056 25.7647 35.735 24.8824L129 0Z" fill="black"/>
</g>
<defs>
<clipPath id="clip0_2901_634">
<rect width="129" height="45" fill="white"/>
</clipPath>
</defs>
</svg>
