<svg width="215" height="19" viewBox="0 0 215 19" fill="none" xmlns="http://www.w3.org/2000/svg">
<g clip-path="url(#clip0_2901_659)">
<path d="M137.827 10.3159C137.827 15.9589 134.32 18.9799 127.771 18.9799C121.349 18.9799 117.715 15.8829 117.715 10.3539V0.378906H124.94V10.0689C124.94 12.7479 125.764 13.9449 127.707 13.9449C129.651 13.9449 130.581 12.8619 130.581 9.80291V0.378906H137.806L137.827 10.3159Z" fill="#006241"/>
<path d="M34.1611 4.99591V18.6189H26.8515V4.99591H20.7461V0.378906H40.2666V4.99591H34.1611Z" fill="#006241"/>
<path d="M52.583 4.54133L50.7873 10.7923H54.4421L52.583 4.54133ZM57.273 18.6203L56.0476 15.2763H49.1817L47.893 18.6203H40.6045L47.9986 0.361328H57.2518L64.5403 18.6203H57.273Z" fill="#006241"/>
<path d="M161.277 17.1954L159.08 12.4644C157.791 13.3384 156.481 14.1174 154.369 14.1174C151.496 14.1174 149.594 11.9894 149.594 9.40544C149.594 6.78344 151.263 4.59845 154.263 4.59845C156.143 4.59845 157.791 5.43444 159.101 6.38444L161.256 1.76745C158.742 0.570445 155.932 -0.0185547 153.101 0.000445313C146.975 0.000445313 142.306 3.78144 142.306 9.36744C142.306 15.2574 146.848 19.0004 153.312 19.0004C156.862 19.0004 159.376 18.2594 161.277 17.1954Z" fill="#006241"/>
<path d="M177.691 18.6189L173.128 11.9689V18.6189H166.029V0.378906H173.128V7.04791L177.395 0.378906H185.339L178.663 9.36591L186.184 18.6189H177.691Z" fill="#006241"/>
<path d="M8.53493 19C13.1404 19 17.9149 17.518 17.9149 12.863C17.9149 8.664 13.9432 7.505 10.8377 6.897C8.49268 6.441 7.373 6.232 7.373 5.396C7.373 4.275 8.95745 4.199 9.8025 4.199C11.9151 4.199 13.8798 4.978 15.5488 5.89L17.4501 1.729C14.9361 0.76 11.9574 0 9.14759 0C4.3731 0 0.633782 2.071 0.633782 6.251C0.633782 9.671 3.52805 10.982 6.69696 11.704C8.9152 12.179 10.3095 12.331 10.3095 13.319C10.3095 14.307 9.23209 14.592 8.17579 14.592C6.02093 14.573 3.92945 13.87 2.28162 12.635L0 16.644C2.53513 18.145 5.49278 18.962 8.53493 19Z" fill="#006241"/>
<path d="M196.937 18.9986C201.543 18.9986 206.317 17.5166 206.317 12.8616C206.317 8.66258 202.346 7.50358 199.219 6.89558C196.874 6.43958 195.754 6.23058 195.754 5.39458C195.754 4.27358 197.339 4.19758 198.184 4.19758C200.296 4.19758 202.261 4.97658 203.93 5.88858L205.831 1.72758C203.338 0.777578 200.36 0.0175781 197.55 0.0175781C192.775 0.0175781 189.036 2.08858 189.036 6.26858C189.036 9.68858 191.93 10.9996 195.099 11.7216C197.296 12.2156 198.712 12.3676 198.712 13.3366C198.712 14.3246 197.634 14.6096 196.578 14.6096C194.423 14.5716 192.353 13.8876 190.684 12.6526L188.402 16.6806C190.937 18.1436 193.895 18.9606 196.937 18.9986Z" fill="#006241"/>
<path d="M83.8074 11.7979C86.3003 10.9809 87.6312 8.73891 87.6312 6.62991C87.6312 2.31691 84.3567 0.378906 79.7089 0.378906H68.7656V18.6189H75.8006V13.2039H77.5752L81.23 18.6189H88.8143L83.8074 11.7979ZM80.5117 6.66791C80.5117 7.86491 79.6667 8.56791 78.2724 8.56791H75.7795V4.72991H78.2935C79.6244 4.72991 80.4906 5.33791 80.4906 6.59191V6.66791H80.5117Z" fill="#006241"/>
<path d="M108.461 9.28991C111.102 8.77691 112.391 7.44691 112.391 5.20491C112.391 2.10791 109.813 0.378906 105.25 0.378906H93.6729V18.6189H104.785C110.151 18.6189 112.834 16.9279 112.834 13.4889C112.834 11.0949 111.165 9.49891 108.461 9.28991ZM100.644 4.33091H103.201C104.553 4.33091 105.419 4.86291 105.419 5.92691V5.96491C105.419 6.99091 104.574 7.57991 103.18 7.57991H100.666V4.33091H100.644ZM105.525 12.9569C105.525 14.0399 104.658 14.6479 103.222 14.6479H100.644V11.2279H103.243C104.616 11.2279 105.525 11.7789 105.525 12.8999V12.9569Z" fill="#006241"/>
<path d="M211.916 -0.000531248C213.627 -0.000531248 215 1.25347 215 2.77347C215 4.31247 213.606 5.54747 211.916 5.54747C210.226 5.54747 208.831 4.33147 208.831 2.79247C208.831 2.77347 208.831 2.77347 208.831 2.75447C208.81 1.23447 210.183 -0.0195312 211.873 -0.0195312C211.895 -0.000531248 211.895 -0.000531248 211.916 -0.000531248ZM211.916 5.16747C213.331 5.14847 214.472 4.10347 214.472 2.83047C214.472 2.81147 214.472 2.79247 214.472 2.79247C214.514 1.51947 213.416 0.474469 212 0.436469C210.585 0.398469 209.423 1.38647 209.381 2.65947C209.381 2.71647 209.381 2.75447 209.381 2.81147C209.338 4.08447 210.437 5.14847 211.852 5.18647C211.873 5.16747 211.895 5.16747 211.916 5.16747ZM210.733 1.15847H212.106C212.972 1.15847 213.373 1.46247 213.373 2.08947C213.373 2.71647 212.951 2.92547 212.423 2.98247L213.458 4.42647H212.866L211.873 3.02047H211.303V4.40747H210.754L210.733 1.15847ZM211.282 2.60247H211.852C212.359 2.60247 212.824 2.58347 212.824 2.05147C212.824 1.59547 212.38 1.55747 212.021 1.55747H211.303V2.60247H211.282Z" fill="#006241"/>
</g>
<defs>
<clipPath id="clip0_2901_659">
<rect width="215" height="19" fill="white"/>
</clipPath>
</defs>
</svg>
