<svg width="179" height="50" viewBox="0 0 179 50" fill="none" xmlns="http://www.w3.org/2000/svg">
<g clip-path="url(#clip0_2901_678)">
<path fill-rule="evenodd" clip-rule="evenodd" d="M165.348 26.545L168.116 19.2262L170.885 26.545H165.348ZM170.98 15.0716H165.252L157.233 34.9508H162.197L164.011 30.0957H172.198L174.035 34.9508H179L170.98 15.0716ZM130.526 31.4725C127.28 31.4725 124.679 28.5257 124.679 24.8783C124.679 21.231 127.304 18.2841 130.526 18.2841C133.748 18.2841 136.374 21.231 136.374 24.8783C136.398 28.5257 133.772 31.4725 130.526 31.4725ZM130.526 14.3711C124.798 14.3711 120.144 19.0812 120.144 24.8783C120.144 30.6754 124.798 35.3856 130.526 35.3856C136.254 35.3856 140.908 30.6996 140.908 24.9025C140.908 19.0812 136.254 14.3711 130.526 14.3711ZM89.595 31.4725C86.373 31.4725 83.7476 28.5257 83.7476 24.8783C83.7476 21.231 86.373 18.2841 89.595 18.2841C92.8408 18.2841 95.4662 21.231 95.4662 24.8783C95.4662 28.5257 92.8408 31.4725 89.595 31.4725ZM89.595 14.3711C83.867 14.3711 79.2368 19.0812 79.2368 24.8783C79.2368 30.6754 83.867 35.3856 89.595 35.3856C95.323 35.3856 99.977 30.6996 99.977 24.9025C99.977 19.0812 95.323 14.3711 89.595 14.3711ZM115.252 15.0716L110.168 23.1151L105.084 15.0716H100.12L107.996 27.5353V34.9508H112.364V27.5353L120.24 15.0716C120.216 15.0716 115.252 15.0716 115.252 15.0716ZM158.283 15.0716H141.505V18.888H147.734V34.9508H152.102V18.8638H158.283V15.0716ZM61.5278 18.8638H67.757V34.9267H72.1246V18.8638H78.306V15.0716H61.5039V18.8638H61.5278Z" fill="black"/>
<path d="M49.2369 0H0V49.8309H49.2369V0Z" fill="#EB0A1E"/>
<path d="M32.8167 14.082C30.5255 13.3332 27.6854 12.8984 24.6066 12.8984C21.5278 12.8984 18.6877 13.3332 16.3965 14.082C10.3105 16.0627 6.13379 20.169 6.13379 24.9033C6.13379 31.5699 14.3917 36.9806 24.5827 36.9806C34.7738 36.9806 43.0317 31.5699 43.0317 24.9033C43.0794 20.169 38.9027 16.0627 32.8167 14.082ZM24.6066 31.8115C23.0791 31.8115 21.8381 28.7922 21.7665 24.9757C22.6734 25.0482 23.6281 25.0965 24.6066 25.0965C25.5851 25.0965 26.5159 25.0482 27.4467 24.9757C27.3751 28.768 26.1341 31.8115 24.6066 31.8115ZM21.9574 21.9806C22.3631 19.2994 23.3894 17.4153 24.6066 17.4153C25.7999 17.4153 26.8262 19.2994 27.2558 21.9806C26.4205 22.053 25.5135 22.1013 24.6066 22.1013C23.6997 22.1013 22.8166 22.0772 21.9574 21.9806ZM28.8787 21.7873C28.2582 17.5844 26.5875 14.5893 24.6066 14.5893C22.6257 14.5893 20.955 17.5844 20.3345 21.7873C16.5874 21.1835 13.9621 19.855 13.9621 18.2849C13.9621 16.1593 18.7115 14.4443 24.5827 14.4443C30.4539 14.4443 35.2034 16.1593 35.2034 18.2849C35.2511 19.855 32.6258 21.2076 28.8787 21.7873ZM8.85459 24.4685C8.85459 22.4153 9.64219 20.5071 10.9787 18.8646C10.9549 18.9854 10.9549 19.1062 10.9549 19.2028C10.9549 21.7873 14.7735 23.9612 20.0958 24.7583C20.0958 24.9516 20.0958 25.1448 20.0958 25.3381C20.0958 30.1207 21.4085 34.1786 23.2223 35.5796C15.1554 35.0965 8.85459 30.3139 8.85459 24.4685ZM26.0147 35.5796C27.8286 34.1786 29.1413 30.1207 29.1413 25.3381C29.1413 25.1448 29.1413 24.9516 29.1413 24.7583C34.4635 23.9612 38.2822 21.7632 38.2822 19.2028C38.2822 19.082 38.2822 18.9612 38.2583 18.8646C39.6187 20.5071 40.3825 22.4395 40.3825 24.4685C40.3825 30.3139 34.0578 35.0965 26.0147 35.5796Z" fill="white"/>
</g>
<defs>
<clipPath id="clip0_2901_678">
<rect width="179" height="50" fill="white"/>
</clipPath>
</defs>
</svg>
